<svg width="24" height="24" viewBox="0 0 24 24" fill="none" xmlns="http://www.w3.org/2000/svg">
<path fill-rule="evenodd" clip-rule="evenodd" d="M12 14.976C15.6045 14.259 18 11.22 18 7.5C18 5.9087 17.3679 4.38258 16.2426 3.25736C15.1174 2.13214 13.5913 1.5 12 1.5C10.4087 1.5 8.88258 2.13214 7.75736 3.25736C6.63214 4.38258 6 5.9087 6 7.5C6 11.22 8.3955 14.259 12 14.976ZM19.5 7.5C19.5 11.7555 16.8165 15.3405 12.72 16.3515L13.086 17.082C13.1306 17.1711 13.1379 17.2743 13.1064 17.3688C13.0749 17.4633 13.0071 17.5414 12.918 17.586C12.8289 17.6306 12.7257 17.6379 12.6312 17.6064C12.5367 17.5749 12.4586 17.5071 12.414 17.418L12.402 17.3925C12.414 17.5575 12.432 17.6955 12.4575 17.8275C12.5385 18.2325 12.699 18.5595 13.086 19.332C13.518 20.199 13.4385 21.057 13.2 21.7755C12.9645 22.479 12.567 23.076 12.318 23.448L12.312 23.4585C12.2846 23.4995 12.2494 23.5347 12.2085 23.562C12.1675 23.5894 12.1215 23.6084 12.0732 23.6181C12.0249 23.6277 11.9751 23.6277 11.9268 23.618C11.8784 23.6084 11.8325 23.5894 11.7915 23.562C11.7505 23.5346 11.7153 23.4994 11.688 23.4585C11.6606 23.4175 11.6416 23.3715 11.632 23.3232C11.6223 23.2749 11.6223 23.2251 11.632 23.1768C11.6416 23.1284 11.6606 23.0825 11.688 23.0415C11.94 22.6635 12.288 22.1415 12.4875 21.537C12.687 20.943 12.732 20.301 12.414 19.668L12.3945 19.626C12.0345 18.906 11.8245 18.489 11.7225 17.973C11.6805 17.7501 11.6544 17.5246 11.6445 17.298L11.5845 17.418C11.5627 17.4624 11.5323 17.5021 11.495 17.5347C11.4578 17.5673 11.4145 17.5922 11.3676 17.608C11.3207 17.6238 11.2711 17.6301 11.2218 17.6267C11.1724 17.6232 11.1242 17.61 11.0799 17.5879C11.0357 17.5657 10.9963 17.535 10.964 17.4975C10.9316 17.46 10.9071 17.4165 10.8916 17.3695C10.8762 17.3225 10.8702 17.2729 10.8741 17.2235C10.8779 17.1742 10.8915 17.1261 10.914 17.082L11.28 16.3515C7.1835 15.3405 4.5 11.7555 4.5 7.5C4.5 5.51088 5.29018 3.60322 6.6967 2.1967C8.10322 0.790176 10.0109 0 12 0C13.9891 0 15.8968 0.790176 17.3033 2.1967C18.7098 3.60322 19.5 5.51088 19.5 7.5ZM9.093 6.7575C9.2267 6.23585 9.49814 5.75972 9.87893 5.37893C10.2597 4.99814 10.7358 4.7267 11.2575 4.593C11.6595 4.491 12 4.164 12 3.75C12 3.336 11.661 2.994 11.253 3.0615C10.3308 3.21757 9.48007 3.65683 8.81884 4.31833C8.15761 4.97983 7.7187 5.83074 7.563 6.753C7.494 7.161 7.836 7.5 8.25 7.5C8.664 7.5 8.991 7.1595 9.093 6.7575Z" fill="#B48669"/>
</svg>
