<svg width="14" height="16" viewBox="0 0 14 16" fill="none" xmlns="http://www.w3.org/2000/svg">
<path d="M2.06677 6.06258C2.06583 5.39572 2.19684 4.73527 2.45224 4.11925C2.70764 3.50324 3.0824 2.94385 3.55492 2.47329C4.02744 2.00273 4.58838 1.6303 5.20545 1.37747C5.82252 1.12463 6.48351 0.996368 7.15036 1.00008C9.93474 1.02117 12.1636 3.33445 12.1636 6.12586V6.62508C12.1636 9.14227 12.691 10.6048 13.155 11.4063C13.2043 11.4917 13.2303 11.5885 13.2304 11.6871C13.2305 11.7857 13.2047 11.8825 13.1555 11.968C13.1064 12.0534 13.0357 12.1245 12.9504 12.174C12.8652 12.2235 12.7685 12.2497 12.6699 12.2501H1.56052C1.46195 12.2497 1.3652 12.2235 1.27996 12.174C1.19473 12.1245 1.124 12.0534 1.07487 11.968C1.02573 11.8825 0.999913 11.7857 1 11.6871C1.00009 11.5885 1.02608 11.4917 1.07536 11.4063C1.53943 10.6048 2.06677 9.14227 2.06677 6.62508V6.06258Z" stroke="#057672" stroke-width="1.5" stroke-linecap="round" stroke-linejoin="round"/>
<path d="M4.86521 12.25V12.8125C4.86521 13.4092 5.10226 13.9815 5.52422 14.4035C5.94618 14.8254 6.51847 15.0625 7.11521 15.0625C7.71195 15.0625 8.28424 14.8254 8.7062 14.4035C9.12816 13.9815 9.36521 13.4092 9.36521 12.8125V12.25" stroke="#057672" stroke-width="1.5" stroke-linecap="round" stroke-linejoin="round"/>
</svg>
