<svg width="118" height="203" viewBox="0 0 118 203" fill="none" xmlns="http://www.w3.org/2000/svg">
<rect x="7" y="48.5823" width="100" height="100" rx="50" fill="white"/>
<path d="M51.4 97.1823C49.5435 97.1823 47.763 96.4448 46.4503 95.1321C45.1375 93.8193 44.4 92.0388 44.4 90.1823V84.5823C44.4 84.211 44.5475 83.8549 44.8101 83.5924C45.0726 83.3298 45.4287 83.1823 45.8 83.1823H47.2C47.5713 83.1823 47.9274 83.0348 48.1899 82.7723C48.4525 82.5097 48.6 82.1536 48.6 81.7823C48.6 81.411 48.4525 81.0549 48.1899 80.7924C47.9274 80.5298 47.5713 80.3823 47.2 80.3823H45.8C44.6861 80.3823 43.6178 80.8248 42.8302 81.6125C42.0425 82.4001 41.6 83.4684 41.6 84.5823V90.1823C41.6018 91.7639 41.9875 93.3215 42.7239 94.7212C43.4604 96.1209 44.5255 97.321 45.828 98.2183C47.0794 99.3215 48.0942 100.667 48.8112 102.173C49.5283 103.679 49.9327 105.315 50 106.982C50 109.581 51.0325 112.074 52.8704 113.912C54.7082 115.75 57.2009 116.782 59.8 116.782C62.3991 116.782 64.8918 115.75 66.7296 113.912C68.5675 112.074 69.6 109.581 69.6 106.982V105.386C70.9197 105.046 72.0699 104.235 72.8348 103.107C73.5998 101.979 73.9271 100.611 73.7554 99.2585C73.5836 97.9064 72.9246 96.6633 71.9019 95.7623C70.8792 94.8612 69.563 94.3641 68.2 94.3641C66.837 94.3641 65.5208 94.8612 64.4981 95.7623C63.4754 96.6633 62.8164 97.9064 62.6446 99.2585C62.4729 100.611 62.8002 101.979 63.5652 103.107C64.3301 104.235 65.4803 105.046 66.8 105.386V106.982C66.8 108.839 66.0625 110.619 64.7498 111.932C63.437 113.245 61.6565 113.982 59.8 113.982C57.9435 113.982 56.163 113.245 54.8503 111.932C53.5375 110.619 52.8 108.839 52.8 106.982C52.8709 105.313 53.2796 103.676 54.0015 102.17C54.7235 100.663 55.7435 99.3191 57 98.2183C58.2973 97.3179 59.357 96.1165 60.0885 94.7169C60.8199 93.3174 61.2013 91.7615 61.2 90.1823V84.5823C61.2 83.4684 60.7575 82.4001 59.9699 81.6125C59.1822 80.8248 58.1139 80.3823 57 80.3823H55.6C55.2287 80.3823 54.8726 80.5298 54.6101 80.7924C54.3475 81.0549 54.2 81.411 54.2 81.7823C54.2 82.1536 54.3475 82.5097 54.6101 82.7723C54.8726 83.0348 55.2287 83.1823 55.6 83.1823H57C57.3713 83.1823 57.7274 83.3298 57.99 83.5924C58.2525 83.8549 58.4 84.211 58.4 84.5823V90.1823C58.4 91.1016 58.2189 92.0118 57.8672 92.8611C57.5154 93.7104 56.9998 94.482 56.3497 95.1321C55.6997 95.7821 54.9281 96.2977 54.0788 96.6495C53.2295 97.0012 52.3193 97.1823 51.4 97.1823ZM68.2 102.782C67.4574 102.782 66.7452 102.487 66.2201 101.962C65.695 101.437 65.4 100.725 65.4 99.9823C65.4 99.2397 65.695 98.5275 66.2201 98.0024C66.7452 97.4773 67.4574 97.1823 68.2 97.1823C68.9426 97.1823 69.6548 97.4773 70.1799 98.0024C70.705 98.5275 71 99.2397 71 99.9823C71 100.725 70.705 101.437 70.1799 101.962C69.6548 102.487 68.9426 102.782 68.2 102.782Z" fill="#057672"/>
<path d="M35.4754 27.3114C37.5239 30.3429 36.5607 33.2016 32.5858 35.8876L25.9275 40.3869L14.9849 24.1935L21.504 19.7883C23.1589 18.67 24.691 18.1866 26.1001 18.3383C27.5248 18.4795 28.6708 19.192 29.5383 20.4757C30.688 22.177 30.7451 23.8619 29.7097 25.5303L29.7568 25.5999C32.2941 24.854 34.2004 25.4245 35.4754 27.3114ZM26.7061 36.9884L31.0445 34.0567C32.5447 33.0429 33.4474 32.095 33.7525 31.213C34.0731 30.3205 33.946 29.4489 33.3712 28.5982C32.1797 26.835 30.2152 26.8784 27.4776 28.7283L23.1161 31.6756L26.7061 36.9884ZM21.8305 29.7732L25.6817 27.1708C27.0582 26.2407 27.8681 25.3554 28.1113 24.5152C28.3546 23.675 28.2149 22.8682 27.6924 22.0948C27.1593 21.3061 26.4449 20.8989 25.5491 20.8735C24.6687 20.8376 23.7104 21.1697 22.6742 21.87L18.4286 24.7389L21.8305 29.7732Z" fill="white"/>
<path d="M57.9059 20.8551L58.0158 21.7443L47.2894 23.0698C47.5978 24.3483 48.2043 25.2985 49.1087 25.9202C50.0131 26.542 51.2897 26.751 52.9385 26.5473C54.6058 26.3412 56.0862 25.6881 57.3797 24.5878L57.5186 24.5706L57.8208 27.016C56.3723 28.079 54.592 28.741 52.4801 29.002C50.3867 29.2607 48.6218 28.8299 47.1856 27.7096C45.7656 26.5685 44.9205 24.9049 44.6504 22.7188C44.378 20.5143 44.7187 18.6289 45.6725 17.0628C46.6262 15.4967 48.1869 14.5797 50.3544 14.3118C52.5219 14.044 54.2589 14.5535 55.5652 15.8403C56.8716 17.1271 57.6518 18.7987 57.9059 20.8551ZM47.0353 21.0135L55.2329 20.0005C54.994 18.6758 54.4153 17.7222 53.497 17.1398C52.5971 16.555 51.6377 16.3256 50.6188 16.4515C49.5999 16.5775 48.7252 17.0335 47.9948 17.8197C47.2644 18.6059 46.9445 19.6705 47.0353 21.0135Z" fill="white"/>
<path d="M76.5425 19.2972L72.615 18.2686L70.4726 26.4487C70.274 27.2071 70.3587 27.731 70.7267 28.0204C71.032 28.2547 71.4555 28.4428 71.9972 28.5847C72.5389 28.7265 73.1727 28.7382 73.8984 28.6195L74.088 28.6691L73.5631 30.6735C72.7006 30.8722 71.836 30.858 70.9692 30.631C68.3328 29.9405 67.3267 28.4035 67.951 26.0199L70.1501 17.6231L67.5769 16.9491L67.6195 16.7866L73.9487 13.1764L73.1683 16.1559L77.0959 17.1845L76.5425 19.2972Z" fill="white"/>
<path d="M88.5655 23.2477C90.2936 23.6404 91.9014 24.385 93.3889 25.4815C94.8914 26.5892 95.7196 27.8723 95.8735 29.3308C96.0274 30.7893 95.6558 32.1271 94.7586 33.3441L89.3921 40.6239L87.5891 39.2947L88.4045 37.6695L88.3369 37.6197C86.4354 37.934 84.6358 37.4654 82.9379 36.2138C81.9162 35.4606 81.2718 34.5102 81.0047 33.3625C80.7526 32.2258 81.0198 31.1241 81.8062 30.0573C82.5927 28.9905 83.6653 28.4478 85.0241 28.4291C86.398 28.4215 87.9338 29.0435 89.6317 30.2951L92.3588 32.3055L92.4917 32.1252C93.2227 31.1335 93.5009 30.2371 93.3263 29.4358C93.1667 28.6456 92.4859 27.8075 91.2839 26.9214C90.0818 26.0353 88.7667 25.46 87.3383 25.1955L87.2031 25.0958L88.5655 23.2477ZM89.7503 35.8439L91.1459 33.9508L88.6893 32.1398C86.4204 30.4672 84.843 30.232 83.9569 31.434C83.0818 32.621 83.4407 33.8016 85.0333 34.9756C85.6945 35.463 86.4493 35.776 87.298 35.9146C88.1577 36.0382 88.9751 36.0146 89.7503 35.8439Z" fill="white"/>
<path d="M29.9437 165.73L31.8838 167.382L19.2146 182.263L17.2745 180.612L22.8286 174.088L14.7482 167.209L9.19412 173.733L7.25398 172.081L19.9232 157.199L21.8633 158.851L16.291 165.396L24.3714 172.275L29.9437 165.73Z" fill="white"/>
<path d="M43.856 185.489L43.5529 186.332L33.3822 182.675C33.0807 183.956 33.1932 185.077 33.7198 186.04C34.2464 187.003 35.2914 187.766 36.8548 188.328C38.4357 188.896 40.0515 188.981 41.7023 188.583L41.8341 188.63L41.0004 190.949C39.2281 191.244 37.3406 191.031 35.3381 190.311C33.3532 189.598 31.9726 188.417 31.1963 186.769C30.4439 185.11 30.4403 183.244 31.1855 181.172C31.937 179.081 33.0917 177.552 34.6495 176.585C36.2073 175.618 38.0138 175.503 40.069 176.242C42.1242 176.981 43.4444 178.22 44.0297 179.957C44.6149 181.695 44.557 183.539 43.856 185.489ZM34.0832 180.726L41.8561 183.52C42.2406 182.23 42.1544 181.118 41.5976 180.184C41.0584 179.256 40.3057 178.619 39.3396 178.271C38.3734 177.924 37.3871 177.936 36.3805 178.308C35.374 178.68 34.6082 179.486 34.0832 180.726Z" fill="white"/>
<path d="M51.3639 180.33C53.0085 179.669 54.7544 179.367 56.6015 179.422C58.4674 179.478 59.8785 180.062 60.8349 181.174C61.7913 182.286 62.2468 183.598 62.2014 185.109L61.93 194.149L59.691 194.082L59.4369 192.281L59.353 192.279C57.9681 193.619 56.2215 194.258 54.1131 194.194C52.8444 194.156 51.7737 193.741 50.9011 192.949C50.0471 192.158 49.64 191.1 49.6797 189.775C49.7195 188.451 50.2928 187.394 51.3996 186.606C52.5251 185.818 54.1421 185.455 56.2504 185.519L59.6369 185.62L59.6436 185.396C59.6806 184.165 59.3993 183.269 58.7999 182.71C58.219 182.151 57.1823 181.849 55.6896 181.804C54.197 181.759 52.7881 182.035 51.463 182.63L51.295 182.625L51.3639 180.33ZM59.505 190.014L59.5756 187.663L56.525 187.572C53.7076 187.487 52.2765 188.191 52.2316 189.684C52.1874 191.158 53.1542 191.925 55.1319 191.984C55.9529 192.009 56.7517 191.837 57.5285 191.468C58.3058 191.08 58.9646 190.596 59.505 190.014Z" fill="white"/>
<path d="M70.472 172.121L75.034 192.046L72.5502 192.614L67.9882 172.69L70.472 172.121Z" fill="white"/>
<path d="M86.9751 174.576L83.3064 176.315L86.9286 183.956C87.2644 184.664 87.6663 185.011 88.1342 184.995C88.5186 184.979 88.9639 184.85 89.4699 184.61C89.9759 184.37 90.4686 183.972 90.9479 183.414L91.125 183.33L92.0125 185.202C91.48 185.909 90.8089 186.454 89.9993 186.838C87.5366 188.006 85.7776 187.476 84.7221 185.25L81.004 177.406L78.6004 178.546L78.5285 178.394L81.0516 171.558L82.3709 174.341L86.0396 172.602L86.9751 174.576Z" fill="white"/>
<path d="M96.1082 164.629C97.2572 163.589 98.5146 163.157 99.8803 163.331C101.246 163.505 102.455 164.174 103.507 165.337L109.592 172.065L107.702 173.774L101.805 167.254C100.277 165.565 98.7519 165.409 97.229 166.786C96.0246 167.876 95.4904 169.567 95.6265 171.86L102.012 178.921L100.123 180.63L86.4117 165.471L88.3014 163.761L93.9173 169.97L93.9796 169.914C93.9865 167.668 94.6961 165.906 96.1082 164.629Z" fill="white"/>
<rect x="45" y="6.34341" width="2" height="7.32712" rx="1" transform="rotate(-42.199 45 6.34341)" fill="white"/>
</svg>
