<svg width="40" height="36" viewBox="0 0 40 36" fill="none" xmlns="http://www.w3.org/2000/svg">
<path d="M20 28.5417C22.3958 28.5417 24.4326 27.7034 26.1103 26.027C27.7868 24.3493 28.625 22.3125 28.625 19.9167C28.625 17.5208 27.7868 15.4841 26.1103 13.8063C24.4326 12.1299 22.3958 11.2917 20 11.2917C17.6041 11.2917 15.5674 12.1299 13.8896 13.8063C12.2132 15.4841 11.375 17.5208 11.375 19.9167C11.375 22.3125 12.2132 24.3493 13.8896 26.027C15.5674 27.7034 17.6041 28.5417 20 28.5417ZM20 24.7083C18.6583 24.7083 17.5243 24.2451 16.5979 23.3187C15.6715 22.3924 15.2083 21.2583 15.2083 19.9167C15.2083 18.575 15.6715 17.441 16.5979 16.5146C17.5243 15.5882 18.6583 15.125 20 15.125C21.3416 15.125 22.4757 15.5882 23.4021 16.5146C24.3285 17.441 24.7916 18.575 24.7916 19.9167C24.7916 21.2583 24.3285 22.3924 23.4021 23.3187C22.4757 24.2451 21.3416 24.7083 20 24.7083ZM4.66665 35.25C3.61248 35.25 2.71037 34.875 1.96031 34.1249C1.20898 33.3736 0.833313 32.4708 0.833313 31.4167V8.41667C0.833313 7.3625 1.20898 6.46039 1.96031 5.71033C2.71037 4.959 3.61248 4.58333 4.66665 4.58333H10.7041L14.25 0.75H25.75L29.2958 4.58333H35.3333C36.3875 4.58333 37.2902 4.959 38.0416 5.71033C38.7916 6.46039 39.1666 7.3625 39.1666 8.41667V31.4167C39.1666 32.4708 38.7916 33.3736 38.0416 34.1249C37.2902 34.875 36.3875 35.25 35.3333 35.25H4.66665ZM35.3333 31.4167V8.41667H27.5708L24.0729 4.58333H15.9271L12.4291 8.41667H4.66665V31.4167H35.3333Z" fill="#969696"/>
</svg>
