<svg width="22" height="22" viewBox="0 0 22 22" fill="none" xmlns="http://www.w3.org/2000/svg">
<path d="M12.425 20.4501C12.225 20.6501 12.004 20.7958 11.762 20.8871C11.5207 20.9791 11.2667 21.0251 11 21.0251C10.7333 21.0251 10.4793 20.9791 10.238 20.8871C9.99601 20.7958 9.77501 20.6501 9.57501 20.4501L1.55001 12.4251C1.35001 12.2251 1.20401 12.0041 1.11201 11.7621C1.02067 11.5208 0.975006 11.2668 0.975006 11.0001C0.975006 10.7334 1.02067 10.4794 1.11201 10.2381C1.20401 9.9961 1.35001 9.7751 1.55001 9.5751L9.57501 1.5501C9.77501 1.3501 9.99601 1.2041 10.238 1.1121C10.4793 1.02076 10.7333 0.975098 11 0.975098C11.2667 0.975098 11.5207 1.02076 11.762 1.1121C12.004 1.2041 12.225 1.3501 12.425 1.5501L20.45 9.5751C20.65 9.7751 20.796 9.9961 20.888 10.2381C20.9793 10.4794 21.025 10.7334 21.025 11.0001C21.025 11.2668 20.9793 11.5208 20.888 11.7621C20.796 12.0041 20.65 12.2251 20.45 12.4251L12.425 20.4501ZM11 19.0251L19.025 11.0001L11 2.9751L2.97501 11.0001L11 19.0251ZM11 12.0001C11.2833 12.0001 11.521 11.9041 11.713 11.7121C11.9043 11.5208 12 11.2834 12 11.0001V7.0001C12 6.71676 11.9043 6.4791 11.713 6.2871C11.521 6.09576 11.2833 6.0001 11 6.0001C10.7167 6.0001 10.4793 6.09576 10.288 6.2871C10.096 6.4791 10 6.71676 10 7.0001V11.0001C10 11.2834 10.096 11.5208 10.288 11.7121C10.4793 11.9041 10.7167 12.0001 11 12.0001ZM11 15.0001C11.2833 15.0001 11.521 14.9041 11.713 14.7121C11.9043 14.5208 12 14.2834 12 14.0001C12 13.7168 11.9043 13.4791 11.713 13.2871C11.521 13.0958 11.2833 13.0001 11 13.0001C10.7167 13.0001 10.4793 13.0958 10.288 13.2871C10.096 13.4791 10 13.7168 10 14.0001C10 14.2834 10.096 14.5208 10.288 14.7121C10.4793 14.9041 10.7167 15.0001 11 15.0001Z" fill="#057672"/>
</svg>
