<svg width="24" height="24" viewBox="0 0 24 24" fill="none" xmlns="http://www.w3.org/2000/svg">
<path fill-rule="evenodd" clip-rule="evenodd" d="M16.163 4.01851C14.8781 3.34728 13.4496 2.99779 12 3.00001C7.0295 3.00001 3 7.02951 3 12C3 16.9705 7.0295 21 12 21C16.9705 21 21 16.9705 21 12C21 10.87 20.7915 9.78801 20.4115 8.79151C20.1518 9.01346 19.8558 9.18902 19.5365 9.31051C19.8365 10.151 20 11.0565 20 12C20 16.4185 16.4185 20 12 20C7.5815 20 4 16.4185 4 12C4 7.58151 7.5815 4.00001 12 4.00001C13.361 4.00001 14.643 4.34001 15.765 4.94001C15.8735 4.62401 16.01 4.31501 16.163 4.01851Z" fill="#B48669"/>
<path d="M7.11797 10.215C8.12997 10.5905 9.24197 10.345 10.198 9.4375C10.365 9.9325 9.92297 10.973 8.83197 11.134C7.74097 11.295 7.04447 10.6705 7.11797 10.215Z" fill="#B48669"/>
<path fill-rule="evenodd" clip-rule="evenodd" d="M7.40352 11.1166C7.06202 10.8976 6.81202 10.5441 6.87152 10.1751C6.8774 10.1387 6.89131 10.1039 6.91223 10.0734C6.93315 10.043 6.96057 10.0175 6.99252 9.99891C7.02446 9.98031 7.06014 9.96902 7.09697 9.96586C7.1338 9.96271 7.17087 9.96776 7.20552 9.98065C8.11452 10.3181 9.12851 10.1086 10.0265 9.25665C10.057 9.22774 10.0942 9.20698 10.1348 9.19626C10.1754 9.18555 10.2181 9.18523 10.2588 9.19535C10.2996 9.20546 10.3371 9.22568 10.368 9.25413C10.3989 9.28258 10.4221 9.31836 10.4355 9.35815C10.551 9.70265 10.4475 10.1671 10.1955 10.5486C10.0464 10.774 9.85089 10.9649 9.62203 11.1085C9.39318 11.2522 9.13627 11.3453 8.86851 11.3816C8.26951 11.4701 7.76052 11.3451 7.40352 11.1166ZM7.67352 10.6956C7.91902 10.8526 8.30351 10.9596 8.79551 10.8871C8.99367 10.861 9.18392 10.7927 9.35342 10.6868C9.52291 10.5809 9.6677 10.4398 9.77801 10.2731C9.84051 10.1781 9.88702 10.0836 9.91952 9.99365C9.16652 10.5351 8.33702 10.7346 7.53302 10.5876C7.57152 10.6236 7.61801 10.6601 7.67301 10.6956H7.67352Z" fill="#B48669"/>
<path d="M16.6625 10.215C15.6505 10.5905 14.5385 10.345 13.5825 9.4375C13.416 9.9325 13.8575 10.973 14.949 11.134C16.0395 11.295 16.736 10.6705 16.6625 10.215Z" fill="#B48669"/>
<path fill-rule="evenodd" clip-rule="evenodd" d="M16.377 11.1165C16.7185 10.8975 16.969 10.544 16.9095 10.175C16.9036 10.1385 16.8897 10.1038 16.8688 10.0733C16.8478 10.0428 16.8204 10.0174 16.7885 9.99876C16.7565 9.98016 16.7209 9.96888 16.684 9.96572C16.6472 9.96256 16.6101 9.96761 16.5755 9.9805C15.6665 10.318 14.6525 10.1085 13.7545 9.2565C13.724 9.2276 13.6868 9.20683 13.6462 9.19611C13.6056 9.1854 13.5629 9.18509 13.5222 9.1952C13.4814 9.20531 13.4439 9.22553 13.413 9.25398C13.3821 9.28244 13.3589 9.31821 13.3455 9.358C13.2295 9.7025 13.3335 10.167 13.5855 10.5485C13.7345 10.7738 13.93 10.9646 14.1587 11.1083C14.3875 11.252 14.6443 11.3451 14.912 11.3815C15.5115 11.47 16.02 11.345 16.377 11.1165ZM16.107 10.6955C15.862 10.8525 15.477 10.9595 14.9855 10.887C14.7872 10.861 14.5969 10.7927 14.4273 10.6868C14.2577 10.5808 14.1128 10.4397 14.0025 10.273C13.9444 10.1858 13.8969 10.0919 13.861 9.9935C14.614 10.535 15.444 10.7345 16.2475 10.5875C16.209 10.6235 16.162 10.66 16.107 10.6955ZM18.5 7.5C18.7652 7.5 19.0195 7.39464 19.2071 7.20711C19.3946 7.01957 19.5 6.76522 19.5 6.5C19.5 5.967 19.173 5.315 18.705 4.7C18.6386 4.6131 18.5703 4.52774 18.5 4.444C18.4325 4.524 18.364 4.61 18.295 4.7C17.8275 5.315 17.5 5.967 17.5 6.5C17.5 6.76522 17.6053 7.01957 17.7929 7.20711C17.9804 7.39464 18.2348 7.5 18.5 7.5ZM18.5 8.5C19.0304 8.5 19.5391 8.28929 19.9142 7.91421C20.2893 7.53914 20.5 7.03043 20.5 6.5C20.5 4.75 18.5 3 18.5 3C18.5 3 16.5 4.75 16.5 6.5C16.5 7.03043 16.7107 7.53914 17.0858 7.91421C17.4608 8.28929 17.9695 8.5 18.5 8.5ZM14.616 16.5C13.996 15.193 12.98 14.5 12 14.5C11.02 14.5 10.004 15.193 9.38397 16.5H14.616ZM12 13.5C13.615 13.5 15.015 14.719 15.7035 16.5C15.897 17.0015 15.4935 17.5 14.956 17.5H9.04397C8.50647 17.5 8.10298 17.0015 8.29648 16.5C8.98498 14.719 10.385 13.5 12 13.5Z" fill="#B48669"/>
<path fill-rule="evenodd" clip-rule="evenodd" d="M7.83901 13.6323L11.089 16.6323L10.411 17.3673L7.16101 14.3673L7.83901 13.6323Z" fill="#B48669"/>
<path d="M8.5 14C8.5 14.2652 8.39464 14.5196 8.20711 14.7071C8.01957 14.8946 7.76522 15 7.5 15C7.23478 15 6.98043 14.8946 6.79289 14.7071C6.60536 14.5196 6.5 14.2652 6.5 14C6.5 13.7348 6.60536 13.4804 6.79289 13.2929C6.98043 13.1054 7.23478 13 7.5 13C7.76522 13 8.01957 13.1054 8.20711 13.2929C8.39464 13.4804 8.5 13.7348 8.5 14Z" fill="#B48669"/>
</svg>
