<svg width="26" height="26" viewBox="0 0 26 26" fill="none" xmlns="http://www.w3.org/2000/svg">
<path d="M20.358 22.1357V21.494C20.3374 21.4353 20.3261 21.3736 20.3248 21.3113C20.3438 21.0525 20.2842 20.794 20.1536 20.5697C20.023 20.3454 19.8277 20.1658 19.5932 20.0546C19.5036 20.0044 19.4169 19.9449 19.3274 19.8947C18.4557 19.4379 17.547 19.0553 16.6111 18.751C16.1691 18.5947 15.7235 18.4452 15.2844 18.2823C15.1593 18.2451 15.0501 18.1675 14.9737 18.0617C14.8974 17.9558 14.8582 17.8277 14.8623 17.6973C14.8586 17.3181 14.8489 16.939 14.8724 16.5602C14.8832 16.3997 14.941 16.246 15.0385 16.1182C15.383 15.675 15.6075 15.1505 15.6903 14.5954C15.7202 14.3401 15.7897 14.0911 15.8961 13.8573C16.0868 13.4991 16.2193 13.113 16.2886 12.7133C16.3131 12.5302 16.3144 12.3448 16.2923 12.1615C16.2789 11.9354 16.2323 11.7094 16.2323 11.4801C16.2344 11.287 16.2533 11.0946 16.2886 10.9048C16.3591 10.4573 16.3177 9.99929 16.168 9.5717C16.0184 9.1441 15.7652 8.76021 15.431 8.45431C14.9533 7.98587 14.3359 7.68592 13.6724 7.59992C13.4863 7.57021 13.2987 7.55033 13.1105 7.54033V7.53672C13.0972 7.53629 13.0838 7.5375 13.0708 7.54033C13.0587 7.53746 13.0463 7.53624 13.0339 7.53672V7.54033C12.8447 7.5505 12.656 7.57039 12.4688 7.59992C11.8055 7.68661 11.1883 7.98646 10.7102 8.45431C10.3765 8.76042 10.1238 9.14445 9.97469 9.57206C9.82559 9.99967 9.78475 10.4576 9.85581 10.9048C9.88791 11.095 9.90673 11.2872 9.91214 11.4801C9.90889 11.7094 9.86556 11.9354 9.85256 12.1615C9.83095 12.3448 9.83095 12.53 9.85256 12.7133C9.92293 13.1131 10.0564 13.4993 10.248 13.8573C10.352 14.0918 10.4204 14.3406 10.4509 14.5954C10.535 15.1507 10.7606 15.675 11.106 16.1178C11.2035 16.2458 11.2613 16.3996 11.2721 16.5602C11.2952 16.9393 11.2818 17.3181 11.2786 17.6973C11.2833 17.8279 11.2443 17.9564 11.1678 18.0624C11.0913 18.1683 10.9816 18.2457 10.8561 18.2823C10.4173 18.4448 9.97209 18.5947 9.52973 18.751C8.59463 19.0547 7.68703 19.4373 6.8167 19.8947C6.72714 19.9445 6.64048 20.0044 6.55092 20.0543C6.31643 20.1655 6.12107 20.345 5.9905 20.5693C5.85992 20.7936 5.80025 21.0521 5.81931 21.3109C5.81518 21.3732 5.80292 21.4346 5.78284 21.4937V22.1354" fill="#B48669"/>
<path d="M11.1981 8.09989C11.7065 7.84675 13.407 7.14042 14.9655 8.09736C15.0052 8.12252 15.0379 8.15736 15.0605 8.19861C15.083 8.23985 15.0947 8.28616 15.0944 8.33317V9.44683C15.0942 9.48936 15.0842 9.53126 15.0651 9.56928C15.0461 9.6073 15.0185 9.64043 14.9846 9.66609C14.9507 9.69176 14.9114 9.70927 14.8696 9.71728C14.8278 9.72528 14.7848 9.72356 14.7438 9.71225C13.6487 9.40244 12.4898 9.39782 11.3923 9.69889C11.3515 9.71017 11.3087 9.71184 11.2671 9.70375C11.2255 9.69567 11.1864 9.67805 11.1528 9.6523C11.1192 9.62654 11.0921 9.59334 11.0735 9.55531C11.0549 9.51727 11.0454 9.47545 11.0457 9.43311V8.34653C11.0454 8.29531 11.0595 8.24505 11.0864 8.20145C11.1132 8.15784 11.1522 8.12266 11.1981 8.09989Z" fill="#D22F27"/>
<path d="M20.358 22.1362V21.4945C20.3374 21.4357 20.3261 21.3741 20.3248 21.3118C20.3438 21.053 20.2842 20.7944 20.1536 20.5702C20.023 20.3459 19.8277 20.1663 19.5932 20.0551C19.5036 20.0049 19.4169 19.9453 19.3274 19.8952C18.4557 19.4384 17.547 19.0558 16.6111 18.7515C16.1691 18.5952 15.7235 18.4457 15.2844 18.2828C15.1593 18.2456 15.0501 18.168 14.9737 18.0622C14.8974 17.9563 14.8582 17.8282 14.8623 17.6978C14.8586 17.3186 14.8489 16.9395 14.8724 16.5607C14.8832 16.4002 14.941 16.2465 15.0385 16.1187C15.383 15.6755 15.6075 15.151 15.6903 14.5958C15.7202 14.3406 15.7897 14.0916 15.8961 13.8577C16.0868 13.4996 16.2193 13.1135 16.2886 12.7137C16.3131 12.5307 16.3144 12.3453 16.2923 12.162C16.2789 11.9359 16.2323 11.7098 16.2323 11.4805C16.2344 11.2875 16.2533 11.0951 16.2886 10.9053C16.3591 10.4578 16.3177 9.99978 16.168 9.57218C16.0184 9.14459 15.7652 8.7607 15.431 8.45479C14.9533 7.98636 14.3359 7.68641 13.6724 7.60041C13.4863 7.5707 13.2987 7.55081 13.1105 7.54082V7.53721C13.0972 7.53678 13.0838 7.53799 13.0708 7.54082C13.0587 7.53795 13.0463 7.53673 13.0339 7.53721V7.54082C12.8447 7.55099 12.656 7.57088 12.4688 7.60041C11.8055 7.6871 11.1883 7.98694 10.7102 8.45479C10.3765 8.76091 10.1238 9.14493 9.97469 9.57255C9.82559 10.0002 9.78475 10.458 9.85581 10.9053C9.88791 11.0955 9.90673 11.2877 9.91214 11.4805C9.90889 11.7098 9.86556 11.9359 9.85256 12.162C9.83095 12.3453 9.83095 12.5304 9.85256 12.7137C9.92293 13.1136 10.0564 13.4998 10.248 13.8577C10.352 14.0923 10.4204 14.3411 10.4509 14.5958C10.535 15.1511 10.7606 15.6755 11.106 16.1183C11.2035 16.2463 11.2613 16.4001 11.2721 16.5607C11.2952 16.9398 11.2818 17.3186 11.2786 17.6978C11.2833 17.8284 11.2443 17.9569 11.1678 18.0629C11.0913 18.1688 10.9816 18.2462 10.8561 18.2828C10.4173 18.4453 9.97209 18.5952 9.52973 18.7515C8.59463 19.0552 7.68703 19.4378 6.8167 19.8952C6.72714 19.945 6.64048 20.0049 6.55092 20.0548C6.31643 20.166 6.12107 20.3455 5.9905 20.5698C5.85992 20.7941 5.80025 21.0526 5.81931 21.3114C5.81518 21.3737 5.80292 21.4351 5.78284 21.4942V22.1358" stroke="#593C2A" stroke-linecap="round" stroke-linejoin="round"/>
<path d="M11.1981 8.09989C11.7065 7.84675 13.407 7.14042 14.9655 8.09736C15.0052 8.12252 15.0379 8.15736 15.0605 8.19861C15.083 8.23985 15.0947 8.28616 15.0944 8.33317V9.44683C15.0942 9.48936 15.0842 9.53126 15.0651 9.56928C15.0461 9.6073 15.0185 9.64043 14.9846 9.66609C14.9507 9.69176 14.9114 9.70927 14.8696 9.71728C14.8278 9.72528 14.7848 9.72356 14.7438 9.71225C13.6487 9.40244 12.4898 9.39782 11.3923 9.69889C11.3515 9.71017 11.3087 9.71184 11.2671 9.70375C11.2255 9.69567 11.1864 9.67805 11.1528 9.6523C11.1192 9.62654 11.0921 9.59334 11.0735 9.55531C11.0549 9.51727 11.0454 9.47545 11.0457 9.43311V8.34653C11.0454 8.29531 11.0595 8.24505 11.0864 8.20145C11.1132 8.15784 11.1522 8.12266 11.1981 8.09989Z" stroke="#593C2A" stroke-miterlimit="10"/>
<path d="M15.6697 6.12035L16.3854 4.66255L17.1174 5.43966L18.0165 3.6081M8.87391 3.1986L9.71602 4.58708L8.66736 4.78533L9.72577 6.52985M13.2661 5.51802L13.1979 3.89555L12.2149 4.31191L12.129 2.27344" stroke="#593C2A" stroke-linecap="round" stroke-linejoin="round"/>
<path d="M15.6697 6.12035L16.3854 4.66255L17.1174 5.43966L18.0165 3.6081M8.87391 3.1986L9.71602 4.58708L8.66736 4.78533L9.72577 6.52985M13.2661 5.51802L13.1979 3.89555L12.2149 4.31191L12.129 2.27344" stroke="#D22F27" stroke-linecap="round" stroke-linejoin="round"/>
</svg>
