<svg width="22" height="22" viewBox="0 0 22 22" fill="none" xmlns="http://www.w3.org/2000/svg">
<path d="M8.25 13.75H3.4375C3.25516 13.75 3.0803 13.6776 2.95136 13.5486C2.82243 13.4197 2.75 13.2448 2.75 13.0625V8.9375C2.75 8.75516 2.82243 8.5803 2.95136 8.45136C3.0803 8.32243 3.25516 8.25 3.4375 8.25H8.25V3.4375C8.25 3.25516 8.32243 3.0803 8.45136 2.95136C8.5803 2.82243 8.75516 2.75 8.9375 2.75H13.0625C13.2448 2.75 13.4197 2.82243 13.5486 2.95136C13.6776 3.0803 13.75 3.25516 13.75 3.4375V8.25H18.5625C18.7448 8.25 18.9197 8.32243 19.0486 8.45136C19.1776 8.5803 19.25 8.75516 19.25 8.9375V13.0625C19.25 13.2448 19.1776 13.4197 19.0486 13.5486C18.9197 13.6776 18.7448 13.75 18.5625 13.75H13.75V18.5625C13.75 18.7448 13.6776 18.9197 13.5486 19.0486C13.4197 19.1776 13.2448 19.25 13.0625 19.25H8.9375C8.75516 19.25 8.5803 19.1776 8.45136 19.0486C8.32243 18.9197 8.25 18.7448 8.25 18.5625V13.75Z" stroke="black" stroke-width="1.5" stroke-linecap="round" stroke-linejoin="round"/>
</svg>
