<svg width="22" height="22" viewBox="0 0 22 22" fill="none" xmlns="http://www.w3.org/2000/svg">
<path d="M13.0625 17.875V13.75C13.0625 13.5677 12.9901 13.3928 12.8611 13.2639C12.7322 13.1349 12.5573 13.0625 12.375 13.0625H9.625C9.44266 13.0625 9.2678 13.1349 9.13886 13.2639C9.00993 13.3928 8.9375 13.5677 8.9375 13.75V17.875C8.9375 18.0573 8.86507 18.2322 8.73614 18.3611C8.6072 18.4901 8.43234 18.5625 8.25 18.5625H4.125C3.94266 18.5625 3.7678 18.4901 3.63886 18.3611C3.50993 18.2322 3.4375 18.0573 3.4375 17.875V9.92578C3.43904 9.83064 3.4596 9.73676 3.49797 9.64968C3.53635 9.56261 3.59176 9.48409 3.66094 9.41875L10.5359 3.1711C10.6627 3.05515 10.8282 2.99084 11 2.99084C11.1718 2.99084 11.3373 3.05515 11.4641 3.1711L18.3391 9.41875C18.4082 9.48409 18.4637 9.56261 18.502 9.64968C18.5404 9.73676 18.561 9.83064 18.5625 9.92578V17.875C18.5625 18.0573 18.4901 18.2322 18.3611 18.3611C18.2322 18.4901 18.0573 18.5625 17.875 18.5625H13.75C13.5677 18.5625 13.3928 18.4901 13.2639 18.3611C13.1349 18.2322 13.0625 18.0573 13.0625 17.875Z" fill="#057672" stroke="#057672" stroke-width="1.5" stroke-linecap="round" stroke-linejoin="round"/>
</svg>
