<svg width="22" height="22" viewBox="0 0 22 22" fill="none" xmlns="http://www.w3.org/2000/svg">
<path d="M13.0625 17.8749V13.7499C13.0625 13.5675 12.9901 13.3927 12.8611 13.2637C12.7322 13.1348 12.5573 13.0624 12.375 13.0624H9.625C9.44266 13.0624 9.2678 13.1348 9.13886 13.2637C9.00993 13.3927 8.9375 13.5675 8.9375 13.7499V17.8749C8.9375 18.0572 8.86507 18.2321 8.73614 18.361C8.6072 18.4899 8.43234 18.5624 8.25 18.5624H4.125C3.94266 18.5624 3.7678 18.4899 3.63886 18.361C3.50993 18.2321 3.4375 18.0572 3.4375 17.8749V9.92566C3.43904 9.83051 3.4596 9.73664 3.49797 9.64956C3.53635 9.56248 3.59176 9.48397 3.66094 9.41863L10.5359 3.17097C10.6627 3.05503 10.8282 2.99072 11 2.99072C11.1718 2.99072 11.3373 3.05503 11.4641 3.17097L18.3391 9.41863C18.4082 9.48397 18.4637 9.56248 18.502 9.64956C18.5404 9.73664 18.561 9.83051 18.5625 9.92566V17.8749C18.5625 18.0572 18.4901 18.2321 18.3611 18.361C18.2322 18.4899 18.0573 18.5624 17.875 18.5624H13.75C13.5677 18.5624 13.3928 18.4899 13.2639 18.361C13.1349 18.2321 13.0625 18.0572 13.0625 17.8749Z" fill="white" stroke="black" stroke-width="1.5" stroke-linecap="round" stroke-linejoin="round"/>
</svg>
