<svg width="22" height="22" viewBox="0 0 22 22" fill="none" xmlns="http://www.w3.org/2000/svg">
<path d="M11 21C16.5228 21 21 16.5228 21 11C21 5.47715 16.5228 1 11 1C5.47715 1 1 5.47715 1 11C1 16.5228 5.47715 21 11 21Z" fill="white" stroke="#057672" stroke-linecap="round" stroke-linejoin="round"/>
<path d="M10.7917 7.66675C11.482 7.66675 12.0417 7.1071 12.0417 6.41675C12.0417 5.72639 11.482 5.16675 10.7917 5.16675C10.1013 5.16675 9.54169 5.72639 9.54169 6.41675C9.54169 7.1071 10.1013 7.66675 10.7917 7.66675Z" fill="#057672"/>
<path d="M10.1667 10.1667H11V16.0001H11.8334" fill="#057672"/>
<path d="M10.1667 10.1667H11V16.0001H11.8334" stroke="#057672" stroke-linecap="round" stroke-linejoin="round"/>
</svg>
