<svg width="22" height="22" viewBox="0 0 22 22" fill="none" xmlns="http://www.w3.org/2000/svg">
<path d="M8.06667 10.2667C7.09421 10.2667 6.16158 9.88037 5.47394 9.19273C4.78631 8.5051 4.4 7.57247 4.4 6.60001V3.66667C4.4 3.47218 4.47726 3.28566 4.61479 3.14813C4.75232 3.0106 4.93884 2.93334 5.13333 2.93334H5.86667C6.06116 2.93334 6.24769 2.85608 6.38521 2.71855C6.52274 2.58103 6.6 2.3945 6.6 2.20001C6.6 2.00552 6.52274 1.81899 6.38521 1.68146C6.24769 1.54394 6.06116 1.46667 5.86667 1.46667H5.13333C4.54986 1.46667 3.99028 1.69846 3.5777 2.11104C3.16512 2.52362 2.93333 3.0832 2.93333 3.66667V6.60001C2.93428 7.42848 3.1363 8.24435 3.52205 8.97753C3.90781 9.71072 4.46576 10.3393 5.148 10.8093C5.80348 11.3872 6.33505 12.0919 6.71065 12.8809C7.08625 13.6699 7.29807 14.5269 7.33333 15.4C7.33333 16.7615 7.87417 18.0671 8.83685 19.0298C9.79954 19.9925 11.1052 20.5333 12.4667 20.5333C13.8281 20.5333 15.1338 19.9925 16.0965 19.0298C17.0592 18.0671 17.6 16.7615 17.6 15.4V14.564C18.2913 14.3855 18.8937 13.961 19.2944 13.3701C19.6951 12.7792 19.8666 12.0625 19.7766 11.3542C19.6867 10.6459 19.3415 9.9948 18.8058 9.52284C18.2701 9.05087 17.5806 8.79049 16.8667 8.79049C16.1527 8.79049 15.4633 9.05087 14.9276 9.52284C14.3919 9.9948 14.0467 10.6459 13.9567 11.3542C13.8668 12.0625 14.0382 12.7792 14.4389 13.3701C14.8396 13.961 15.4421 14.3855 16.1333 14.564V15.4C16.1333 16.3725 15.747 17.3051 15.0594 17.9927C14.3718 18.6804 13.4391 19.0667 12.4667 19.0667C11.4942 19.0667 10.5616 18.6804 9.87394 17.9927C9.18631 17.3051 8.8 16.3725 8.8 15.4C8.83712 14.5258 9.05124 13.6682 9.42938 12.8791C9.80753 12.0901 10.3418 11.3859 11 10.8093C11.6795 10.3377 12.2346 9.70838 12.6178 8.97529C13.0009 8.2422 13.2007 7.42718 13.2 6.60001V3.66667C13.2 3.0832 12.9682 2.52362 12.5556 2.11104C12.1431 1.69846 11.5835 1.46667 11 1.46667H10.2667C10.0722 1.46667 9.88565 1.54394 9.74812 1.68146C9.6106 1.81899 9.53333 2.00552 9.53333 2.20001C9.53333 2.3945 9.6106 2.58103 9.74812 2.71855C9.88565 2.85608 10.0722 2.93334 10.2667 2.93334H11C11.1945 2.93334 11.381 3.0106 11.5185 3.14813C11.6561 3.28566 11.7333 3.47218 11.7333 3.66667V6.60001C11.7333 7.08152 11.6385 7.55832 11.4542 8.00318C11.27 8.44804 10.9999 8.85225 10.6594 9.19273C10.3189 9.53321 9.9147 9.8033 9.46984 9.98757C9.02498 10.1718 8.54818 10.2667 8.06667 10.2667ZM16.8667 13.2C16.4777 13.2 16.1046 13.0455 15.8296 12.7704C15.5545 12.4954 15.4 12.1223 15.4 11.7333C15.4 11.3444 15.5545 10.9713 15.8296 10.6963C16.1046 10.4212 16.4777 10.2667 16.8667 10.2667C17.2557 10.2667 17.6287 10.4212 17.9038 10.6963C18.1788 10.9713 18.3333 11.3444 18.3333 11.7333C18.3333 12.1223 18.1788 12.4954 17.9038 12.7704C17.6287 13.0455 17.2557 13.2 16.8667 13.2Z" fill="#0B0B0B"/>
</svg>
