<svg width="17" height="19" viewBox="0 0 17 19" fill="none" xmlns="http://www.w3.org/2000/svg">
<path d="M2.26473 7.00204C2.26362 6.21143 2.41893 5.42842 2.72173 4.69809C3.02453 3.96777 3.46882 3.30457 4.02903 2.74669C4.58923 2.1888 5.25428 1.74727 5.98585 1.44751C6.71743 1.14775 7.50109 0.995694 8.29168 1.00009C11.5927 1.0251 14.2353 3.76766 14.2353 7.07706V7.66892C14.2353 10.6532 14.8605 12.3871 15.4107 13.3374C15.4691 13.4386 15.4999 13.5534 15.5 13.6703C15.5001 13.7871 15.4695 13.902 15.4112 14.0033C15.353 14.1046 15.2691 14.1888 15.1681 14.2475C15.067 14.3062 14.9523 14.3373 14.8355 14.3377H1.66453C1.54767 14.3373 1.43297 14.3062 1.33192 14.2475C1.23086 14.1888 1.14701 14.1046 1.08876 14.0033C1.0305 13.902 0.999897 13.7871 1 13.6703C1.0001 13.5534 1.03091 13.4386 1.08935 13.3374C1.63953 12.3871 2.26473 10.6532 2.26473 7.66892V7.00204Z" stroke="#121212" stroke-width="1.5" stroke-linecap="round" stroke-linejoin="round"/>
<path d="M5.58203 14.3376V15.0045C5.58203 15.712 5.86307 16.3905 6.36333 16.8908C6.86359 17.391 7.54209 17.6721 8.24956 17.6721C8.95703 17.6721 9.63553 17.391 10.1358 16.8908C10.636 16.3905 10.9171 15.712 10.9171 15.0045V14.3376" stroke="#121212" stroke-width="1.5" stroke-linecap="round" stroke-linejoin="round"/>
</svg>
