<svg width="24" height="24" viewBox="0 0 24 24" fill="none" xmlns="http://www.w3.org/2000/svg">
<path d="M2.17499 10.1C2.60832 7.76667 3.73732 5.83333 5.56199 4.3C7.38732 2.76667 9.53332 2 12 2C13.2333 2 14.396 2.2 15.488 2.6C16.5793 3 17.5583 3.56667 18.425 4.3C18.1917 4.73333 18.0043 5.104 17.863 5.412C17.721 5.72067 17.625 6.00833 17.575 6.275C16.8417 5.575 16 5.02067 15.05 4.612C14.1 4.204 13.0833 4 12 4C10.3167 4 8.80832 4.47067 7.47499 5.412C6.14165 6.354 5.17499 7.55833 4.57499 9.025C4.12499 9.00833 3.68765 9.09167 3.26299 9.275C2.83765 9.45833 2.47499 9.73333 2.17499 10.1ZM12 22C9.53332 22 7.38732 21.2333 5.56199 19.7C3.73732 18.1667 2.60832 16.2333 2.17499 13.9C2.45832 14.2667 2.81232 14.546 3.23699 14.738C3.66232 14.9293 4.10832 15.0167 4.57499 15C5.17499 16.4667 6.14165 17.6667 7.47499 18.6C8.80832 19.5333 10.3167 20 12 20C14.2167 20 16.1043 19.221 17.663 17.663C19.221 16.1043 20 14.2167 20 12C20 11.7167 19.9873 11.4333 19.962 11.15C19.9373 10.8667 19.8917 10.5833 19.825 10.3C20.0083 10.3667 20.196 10.4167 20.388 10.45C20.5793 10.4833 20.7833 10.5 21 10.5C21.15 10.5 21.3 10.4917 21.45 10.475C21.6 10.4583 21.7417 10.4333 21.875 10.4C21.9083 10.6667 21.9373 10.9293 21.962 11.188C21.9873 11.446 22 11.7167 22 12C22 13.3833 21.7373 14.6833 21.212 15.9C20.6873 17.1167 19.975 18.175 19.075 19.075C18.175 19.975 17.1167 20.6873 15.9 21.212C14.6833 21.7373 13.3833 22 12 22ZM8.39999 9.475L7.84999 10.025C7.69999 10.175 7.62932 10.35 7.63799 10.55C7.64599 10.75 7.72499 10.925 7.87499 11.075C8.02499 11.225 8.19999 11.3 8.39999 11.3C8.59999 11.3 8.77499 11.225 8.92499 11.075L9.97499 10.025C10.125 9.875 10.2 9.7 10.2 9.5C10.2 9.3 10.125 9.125 9.97499 8.975L8.89999 7.9C8.74999 7.75 8.57499 7.67933 8.37499 7.688C8.17499 7.696 7.99999 7.76667 7.84999 7.9C7.69999 8.05 7.62499 8.225 7.62499 8.425C7.62499 8.625 7.69999 8.8 7.84999 8.95L8.39999 9.475ZM21 9C20.45 9 19.979 8.804 19.587 8.412C19.1957 8.02067 19 7.55 19 7C19 6.55 19.125 6.07067 19.375 5.562C19.625 5.054 20.1667 4.2 21 3C21.8333 4.2 22.375 5.054 22.625 5.562C22.875 6.07067 23 6.55 23 7C23 7.55 22.8043 8.02067 22.413 8.412C22.021 8.804 21.55 9 21 9ZM15.625 9.475L16.15 8.95C16.3 8.8 16.375 8.625 16.375 8.425C16.375 8.225 16.3 8.05 16.15 7.9C16 7.75 15.825 7.675 15.625 7.675C15.425 7.675 15.25 7.75 15.1 7.9L14.025 8.975C13.875 9.125 13.8 9.3 13.8 9.5C13.8 9.7 13.875 9.875 14.025 10.025L15.1 11.1C15.25 11.25 15.4293 11.3207 15.638 11.312C15.846 11.304 16.025 11.225 16.175 11.075C16.325 10.925 16.4 10.7457 16.4 10.537C16.4 10.329 16.325 10.15 16.175 10L15.625 9.475ZM8.12499 17C8.24165 17 8.36265 16.9667 8.48799 16.9C8.61265 16.8333 8.70832 16.75 8.77499 16.65C9.14165 16.15 9.59999 15.75 10.15 15.45C10.7 15.15 11.3167 15 12 15C12.6833 15 13.3 15.15 13.85 15.45C14.4 15.75 14.8583 16.15 15.225 16.65C15.2917 16.75 15.3833 16.8333 15.5 16.9C15.6167 16.9667 15.7333 17 15.85 17C16.15 17 16.371 16.8667 16.513 16.6C16.6543 16.3333 16.625 16.05 16.425 15.75C15.9917 15.1 15.3833 14.5623 14.6 14.137C13.8167 13.7123 12.95 13.5 12 13.5C11.5667 13.5 11.1417 13.55 10.725 13.65C10.3083 13.75 9.91665 13.8917 9.54999 14.075L5.99999 12C5.99999 11.7333 5.93332 11.4833 5.79999 11.25C5.66665 11.0167 5.48332 10.8333 5.24999 10.7C4.88332 10.5 4.50432 10.454 4.11299 10.562C3.72099 10.6707 3.41665 10.9 3.19999 11.25C2.99999 11.6167 2.95399 11.9957 3.06199 12.387C3.17065 12.779 3.39999 13.0833 3.74999 13.3C3.98332 13.4333 4.23332 13.5 4.49999 13.5C4.76665 13.5 5.01665 13.4333 5.24999 13.3L8.19999 15C8.06665 15.1333 7.94999 15.2667 7.84999 15.4L7.54999 15.8C7.36665 16.0833 7.34599 16.3543 7.48799 16.613C7.62932 16.871 7.84165 17 8.12499 17Z" fill="#B48669"/>
</svg>
