<svg width="24" height="24" viewBox="0 0 24 24" fill="none" xmlns="http://www.w3.org/2000/svg">
<path d="M7.17483 1.01904C7.08551 1.18514 6.9327 1.33456 6.7339 1.45019C6.5351 1.56581 6.29835 1.64297 6.05077 1.67281C5.78521 1.70459 5.51925 1.68051 5.28772 1.60372C5.0562 1.52694 4.86991 1.40103 4.75327 1.2425C4.69533 1.50593 4.67297 1.80575 4.69875 2.14015C4.85095 4.11387 4.2225 7.69967 9.73969 8.34021C7.79672 9.85465 8.42766 11.3751 8.87405 12.8992C7.3133 12.8228 6.36108 13.982 5.94075 15.0546C1.37091 14.4346 2.20355 20.7584 2.25759 21.9988C2.3085 23.166 4.71445 23.3268 4.8022 22.2983C4.97409 20.284 4.32206 17.4107 6.17128 17.8859C7.21566 18.1542 9.08892 20.3912 13.7353 20.2942C20.2991 20.157 26.0857 5.23043 17.5622 3.82831C14.595 3.34025 10.6158 5.57318 10.6158 5.57318C7.46077 5.8707 7.46156 4.4269 7.29061 1.72137C7.27388 1.45634 7.23361 1.22271 7.17483 1.01904ZM6.44953 16.4145H18.3701C17.5773 17.7445 15.9223 19.5354 12.9999 19.4927C10.277 19.4528 8.1465 18.6201 6.44953 16.4145Z" fill="#B48669"/>
</svg>
