<svg width="20" height="21" viewBox="0 0 20 21" fill="none" xmlns="http://www.w3.org/2000/svg">
<path d="M10 19C8.14348 19 6.36301 18.2625 5.05025 16.9497C3.7375 15.637 3 13.8565 3 12C3 10.1435 3.7375 8.36299 5.05025 7.05024C6.36301 5.73748 8.14348 4.99999 10 4.99999C11.8565 4.99999 13.637 5.73748 14.9497 7.05024C16.2625 8.36299 17 10.1435 17 12C17 13.8565 16.2625 15.637 14.9497 16.9497C13.637 18.2625 11.8565 19 10 19ZM10 2.99999C7.61305 2.99999 5.32387 3.9482 3.63604 5.63602C1.94821 7.32385 1 9.61304 1 12C1 14.3869 1.94821 16.6761 3.63604 18.3639C5.32387 20.0518 7.61305 21 10 21C12.3869 21 14.6761 20.0518 16.364 18.3639C18.0518 16.6761 19 14.3869 19 12C19 9.61304 18.0518 7.32385 16.364 5.63602C14.6761 3.9482 12.3869 2.99999 10 2.99999ZM10.5 6.99999H9V13L13.75 15.85L14.5 14.62L10.5 12.25V6.99999ZM5.88 2.38999L4.6 0.859985L0 4.70999L1.29 6.23998L5.88 2.38999ZM20 4.71999L15.4 0.859985L14.11 2.38999L18.71 6.24999L20 4.71999Z" fill="#ECBB0D"/>
</svg>
